/* XPM */
static char * Cube_xpm[] = {
"99 99 4 1",
" 	c None",
".	c #000060",
"+	c #7FF700",
"@	c #FFFFFF",
"                                                                                                   ",
"                                                                                                   ",
"                                 ..................................................                ",
"                             ..........................................................            ",
"                           ..............................................................          ",
"                          ................................................................         ",
"                        ....................................................................       ",
"                       ......................................................................      ",
"                       ......................................................................      ",
"                      ........................................................................     ",
"                     ..........................................................................    ",
"                     ..........................................................................    ",
"                    ............................................................................   ",
"                    ............................................................................   ",
"                    ............................................................................   ",
"                    ............................................................................   ",
"                   ..............................................................................  ",
"                   ..............................................................................  ",
"                   ..............................................................................  ",
"                   ..............................................................................  ",
"                   ..............................................................................  ",
"                   ..............................................................................  ",
"                   ..............................................................................  ",
"                   ..............................................................................  ",
"                   ..............................................................................  ",
"                   ..............................................................................  ",
"                   ..............................................................................  ",
"                   ..............................................................................  ",
"                   ..............................................................................  ",
"                   ..............................................................................  ",
"                   ..............................................................................  ",
"                   ..............................................................................  ",
"                   ..............................................................................  ",
"                   ..............................................................................  ",
"                   ..............................................................................  ",
"                   ..............................................................................  ",
"                   ..............................................................................  ",
"              ++++++.............................................................................  ",
"           +++++++++@@@@@@@@@@@@@@@@@@@@@@@@@@@@@@@@@@@@.........................................  ",
"          ++++++++++@@@@@@@@@@@@@@@@@@@@@@@@@@@@@@@@@@@@@........................................  ",
"         +++++++++++@@@@@@@@@@@@@@@@@@@@@@@@@@@@@@@@@@@@@@@......................................  ",
"        ++++++++++++@@@@@@@@@@@@@@@@@@@@@@@@@@@@@@@@@@@@@@@......................................  ",
"       +++++++++++++@@@@@@@@@@@@@@@@@@@@@@@@@@@@@@@@@@@@@@@@.....................................  ",
"      ++++++++++++++@@@@@@@@@@@@@@@@@@@@@@@@@@@@@@@@@@@@@@@@@....................................  ",
"      ++++++++++++++@@@@@@@@@@@@@@@@@@@@@@@@@@@@@@@@@@@@@@@@@....................................  ",
"      ++++++++++++++@@@@@@@@@@@@@@@@@@@@@@@@@@@@@@@@@@@@@@@@@....................................  ",
"     +++++++++++++++@@@@@@@@@@@@@@@@@@@@@@@@@@@@@@@@@@@@@@@@@....................................  ",
"     +++++++++++++++@@@@@@@@@@@@@@@@@@@@@@@@@@@@@@@@@@@@@@@@@....................................  ",
"     +++++++++++++++@@@@@@@@@@@@@@@@@@@@@@@@@@@@@@@@@@@@@@@@@....................................  ",
"     +++++++++++++++@@@@@@@@@@@@@@@@@@@@@@@@@@@@@@@@@@@@@@@@@....................................  ",
"     +++++++++++++++@@@@@@@@@@@@@@@@@@@@@@@@@@@@@@@@@@@@@@@@@....................................  ",
"     +++++++++++++++@@@@@@@@@@@@@@@@@@@@@@@@@@@@@@@@@@@@@@@@@....................................  ",
"     +++++++++++++++@@@@@@@@@@@@@@@@@@@@@@@@@@@@@@@@@@@@@@@@@....................................  ",
"     +++++++++++++++@@@@@@@@@@@@@@@@@@@@@@@@@@@@@@@@@@@@@@@@@....................................  ",
"     +++++++++++++++@@@@@@@@@@@@@@@@@@@@@@@@@@@@@@@@@@@@@@@@@....................................  ",
"     +++++++++++++++@@@@@@@@@@@@@@@@@@@@@@@@@@@@@@@@@@@@@@@@@....................................  ",
"     +++++++++++++++@@@@@@@@@@@@@@@@@@@@@@@@@@@@@@@@@@@@@@@@@....................................  ",
"     +++++++++++++++@@@@@@@@@@@@@@@@@@@@@@@@@@@@@@@@@@@@@@@@@....................................  ",
"     +++++++++++++++@@@@@@@@@@@@@@@@@@@@@@@@@@@@@@@@@@@@@@@@@....................................  ",
"     +++++++++++++++@@@@@@@@@@@@@@@@@@@@@@@@@@@@@@@@@@@@@@@@@....................................  ",
"     +++++++++++++++@@@@@@@@@@@@@@@@@@@@@@@@@@@@@@@@@@@@@@@@@....................................  ",
"     +++++++++++++++@@@@@@@@@@@@@@@@@@@@@@@@@@@@@@@@@@@@@@@@@....................................  ",
"     +++++++++++++++@@@@@@@@@@@@@@@@@@@@@@@@@@@@@@@@@@@@@@@@@....................................  ",
"     +++++++++++++++@@@@@@@@@@@@@@@@@@@@@@@@@@@@@@@@@@@@@@@@@....................................  ",
"     +++++++++++++++@@@@@@@@@@@@@@@@@@@@@@@@@@@@@@@@@@@@@@@@@....................................  ",
"     +++++++++++++++@@@@@@@@@@@@@@@@@@@@@@@@@@@@@@@@@@@@@@@@@....................................  ",
"     +++++++++++++++@@@@@@@@@@@@@@@@@@@@@@@@@@@@@@@@@@@@@@@@@...................................   ",
"     +++++++++++++++@@@@@@@@@@@@@@@@@@@@@@@@@@@@@@@@@@@@@@@@@...................................   ",
"     +++++++++++++++@@@@@@@@@@@@@@@@@@@@@@@@@@@@@@@@@@@@@@@@@...................................   ",
"     +++++++++++++++@@@@@@@@@@@@@@@@@@@@@@@@@@@@@@@@@@@@@@@@@...................................   ",
"     +++++++++++++++@@@@@@@@@@@@@@@@@@@@@@@@@@@@@@@@@@@@@@@@@..................................    ",
"     +++++++++++++++@@@@@@@@@@@@@@@@@@@@@@@@@@@@@@@@@@@@@@@@@..................................    ",
"     ++++++++++++++++@@@@@@@@@@@@@@@@@@@@@@@@@@@@@@@@@@@@@@@@.................................     ",
"     ++++++++++++++++@@@@@@@@@@@@@@@@@@@@@@@@@@@@@@@@@@@@@@@@................................      ",
"     +++++++++++++++++@@@@@@@@@@@@@@@@@@@@@@@@@@@@@@@@@@@@@@@................................      ",
"     ++++++++++++++++++@@@@@@@@@@@@@@@@@@@@@@@@@@@@@@@@@@@@@@...............................       ",
"     +++++++++++++++++++@@@@@@@@@@@@@@@@@@@@@@@@@@@@@@@@@@@@@.............................         ",
"     ++++++++++++++++++++@@@@@@@@@@@@@@@@@@@@@@@@@@@@@@@@@@@@............................          ",
"     ++++++++++++++++++++++@@@@@@@@@@@@@@@@@@@@@@@@@@@@@@@@@@..........................            ",
"     +++++++++++++++++++++++++++++++++++++++++++++++++++++++++.....................                ",
"     +++++++++++++++++++++++++++++++++++++++++++++++++++++++++                                     ",
"     +++++++++++++++++++++++++++++++++++++++++++++++++++++++++                                     ",
"     +++++++++++++++++++++++++++++++++++++++++++++++++++++++++                                     ",
"     +++++++++++++++++++++++++++++++++++++++++++++++++++++++++                                     ",
"     +++++++++++++++++++++++++++++++++++++++++++++++++++++++++                                     ",
"     ++++++++++++++++++++++++++++++++++++++++++++++++++++++++                                      ",
"      +++++++++++++++++++++++++++++++++++++++++++++++++++++++                                      ",
"      ++++++++++++++++++++++++++++++++++++++++++++++++++++++                                       ",
"       +++++++++++++++++++++++++++++++++++++++++++++++++++++                                       ",
"        +++++++++++++++++++++++++++++++++++++++++++++++++++                                        ",
"        ++++++++++++++++++++++++++++++++++++++++++++++++++                                         ",
"          +++++++++++++++++++++++++++++++++++++++++++++++                                          ",
"           +++++++++++++++++++++++++++++++++++++++++++++                                           ",
"              +++++++++++++++++++++++++++++++++++++++                                              ",
"                                                                                                   ",
"                                                                                                   ",
"                                                                                                   ",
"                                                                                                   ",
"                                                                                                   "};
