/* XPM */
static const char * fzjlogo[] = {
"134 51 92 1",
" 	c #010158588787",
".	c #FFFFFFFFFFFF",
"X	c #FEFEFEFEFEFE",
"o	c #E4E4ECECF1F1",
"O	c #BDBDD1D1DEDE",
"+	c #9696B8B8CCCC",
"@	c #7D7DA8A8C0C0",
"#	c #7474A1A1BBBB",
"$	c #8585ACACC4C4",
"%	c #A1A1BFBFD1D1",
"&	c #CCCCDCDCE5E5",
"*	c #F3F3F7F7F9F9",
"=	c #47478686A9A9",
"-	c #0D0D60608D8D",
";	c #000052528383",
":	c #00004E4E8181",
">	c #2C2C72729A9A",
",	c #EDEDF2F2F6F6",
"<	c #9393B5B5CACA",
"1	c #21216C6C9595",
"2	c #01015B5B8A8A",
"3	c #0A0A5D5D8B8B",
"4	c #4C4C8686A8A8",
"5	c #D5D5E2E2EAEA",
"6	c #3A3A7C7CA1A1",
"7	c #F7F7F9F9FAFA",
"8	c #B4B4CBCBD9D9",
"9	c #12125E5E8B8B",
"0	c #353575759C9C",
"q	c #1A1A61618E8E",
"w	c #393979799F9F",
"e	c #DADAE5E5ECEC",
"r	c #6A6A9A9AB6B6",
"t	c #131362628E8E",
"y	c #5A5A8F8FAEAE",
"u	c #ABABC5C5D5D5",
"i	c #080858588787",
"p	c #000046467A7A",
"a	c #6E6E9D9DB8B8",
"s	c #C3C3D5D5E1E1",
"d	c #00004B4B7E7E",
"f	c #E9E9EFEFF3F3",
"g	c #7B7BA5A5BEBE",
"h	c #D1D1DFDFE7E7",
"j	c #A3A3C0C0D2D2",
"k	c #1A1A66669191",
"l	c #41417F7FA3A3",
"z	c #BABACFCFDCDC",
"x	c #48487E7EA3A3",
"c	c #63639696B3B3",
"v	c #444479799F9F",
"b	c #57579090AFAF",
"n	c #CFCFDFDFE8E8",
"m	c #44448282A5A5",
"M	c #1D1D69699494",
"N	c #4E4E8888AAAA",
"B	c #8989AEAEC5C5",
"V	c #71719F9FBABA",
"C	c #52528B8BACAC",
"Z	c #9F9FBDBDD0D0",
"A	c #9090B2B2C7C7",
"S	c #353578789E9E",
"D	c #67679999B6B6",
"F	c #070760608D8D",
"G	c #171766669191",
"H	c #49498484A7A7",
"J	c #8B8BB1B1C7C7",
"K	c #2C2C6F6F9797",
"L	c #8E8EB2B2C8C8",
"P	c #F4F4F4F4F5F5",
"I	c #5C5C9393B1B1",
"U	c #E0E0EAEAEFEF",
"Y	c #DFDFE8E8EEEE",
"T	c #9B9BBBBBCECE",
"R	c #AFAFC8C8D7D7",
"E	c #5D5D9090AFAF",
"W	c #DBDBDBDBDBDB",
"Q	c #CBCBCBCBCBCB",
"!	c #BCBCBCBCBCBC",
"~	c #ECECECECECEC",
"^	c #D3D3D3D3D3D3",
"/	c #E4E4E4E4E4E4",
"(	c #C3C3C3C3C3C3",
")	c #9C9C9C9C9C9C",
"_	c #ACACACACACAC",
"`	c #A3A3A3A3A3A3",
"'	c #949494949494",
"]	c #747474747474",
"[	c #B4B4B4B4B4B4",
"{	c #8D8D8D8D8D8D",
"}	c #7A7A7A7A7A7A",
"|	c #868686868686",
"                                                                                                                                      ",
" .................................................................................................................................... ",
" .................................................................................................................................... ",
" .................................................................................................................................... ",
" .................................................................................................................................... ",
" ....XXXXXXXXXXXXXXXXXXXXXXXXXXXXXXXXXXXXXXXXXXXXXXXXXXXXXXXXXXXXXXXXXXXXXXXXXXXXXXXXXXXXXXXXXXXXXXXXXXXXXXXXXXXXXXXXXXXXXXXXXXXX.... ",
" ....XXXXXXXXXXXXXoO+@##$%&*XXXXXXXXXXXXXXXXXXXXXXXXXXXXXXXXXXXXXXXXXXXXXXXXXXXXXXXXXXXXXXXXXXXXXXXXXXXXXXXXXXXXXXXXXXXXXXXXXXXXX.... ",
" ....XXXXXXXXXX*%=-;:;:::;;>,XXXXXXXXXXXXXXXXXXXXXXXXXXXXXXXXXXXXXXXXXXXXXXXXXXXXXXXXXXXXXXXXXXXXXXXXXXXXXXXXXXXXXXXXXXXXXXXXXXXX.... ",
" ....XXXXXXXXX<1:; 2322323;4XXXXXXXXXXXXXXXXXXXXXXXXXXXXXXXXXXXXXXXXXXXXXXXXXXXXXXXXXXXXXXXXXXXXXXXXXXXXXXXXXXXXXXXXXXXXXXXXXXXXX.... ",
" ....XXXXXXX56: 222222222  OXXXXXXXXXXXXXXXXXXXXXXXXXXXXXXXXXX7XXXX*XXXXXXXXXXXXXXXXXXXXXXXXXXXXXXXXXXXXXXXXXXXXXXXXXXXXXXXXXXXXX.... ",
" ....XXXXXX89;222 22 2222;0XXXXXXXXXXXXXXXXXXXXXXXXXXXXXXXXXX+qweXrty*XXXXXXXXXXXXXXXXXXXXXXXXXXXXXXXXXXXXXXXXXXXXXXXXXXXXXXXXXXX.... ",
" ....XXXXXu; 3 2222222222:+X7XXXXXXXXXXXXXXXXXXXXXXXXXXXXXXXoi pasd2d+XXXXXXXXXXXXXXXXXXXXXXXXXXXXXXXXXXXXXXXXXXXXXXXXXXXXXXXXXXX.... ",
" ....XXXXO; 22 222222 22 t,XXXXXXXX5oXXXXXXXXXXXXXXXXXXXXXXXft;pghd;djXXXXXXXXXXXXXXXXXXXXXXXXXXXXXXXXXXXXXXXXXXXXXXXXXXXXXXXXXXX.... ",
" ....XXXfk;222222 222222;rXXXXXXXXX=lXXXXXXXXXXXXXXXXXXXXXXXXzxc,X+v$XXXXXXXXXXXXXXXXXXXXXXXXXXXXXXXXXXXXXXXXXXXXXXXXXXXXXXXXXXXX.... ",
" ....X7Xb:2 222222222222inXXXXXXXXe3:%XXXXXXXXXXXXXXXXXXXXXXXXXXXXXXXXXXXXXXXXXXXXXXXXXXXXXXXXXXXXXXXXXf5e,XXXXXXXXXXXXXXXXXXXXXX.... ",
" ....XXs:222222222222 2;mXXXXXXXXXg: M*XXXXXXXXXXX806N*X7XBw0VXXXX7Xz0w=*XXX%06C7XXXXXXXXXB0w#XXXXXXXZlt33kyhXXXXXA0SaXXXXXXZ0wDX.... ",
" ....XXN:222 222222222 :uXXXXXXXX*k FdAXXXXXXXXXXXZp;t*XXXcpdmXXXXXXjd;3,X7X$p:G7XXXXXXXXXcpd=XXXXX,Hd ;;: :i8XXXXrpd6XXXXXX@pd>X.... ",
" ....Xei 2222222222222 17XXXXXXXX+:32;SXXXXXXXXXXX%; 1*XXXr;;4XXXXXXu  M,X7XJ; K*XXXXXXX7XD;;CXXXX*ld3;M4mi  toXXX#; HXXXX7XB; 6X.... ",
" ....XL:22222222222 22:$XXXXXXXXX0 2   hXXXXXXXX7X%: M*XXXr;;NXXXXXXu; G,XXXJ: M7XXXXXXXXXD;;NXXXX$dF;rPXX&M3:JX7XV:;HXXXXXX$:;6X.... ",
" ....XC;2222222222222 3oXXXXXXXXO;2222;<X7XXXXXXXXj; M*X7Xr:;NX7XXXXu; G,XXXL; 17XXXXXXXXXD;;CXXX,G ;=XXX7Xupd6X7XV:;HXXXXXX$:;6X.... ",
" ....7> 2222222222222:IXXXXXXXXX4;2222;DXXXXXXXXXX%; M*XXXr; 4XXXXXXu; k,X7XJ:2M7XXXXXXXXXD;;NX7X8:2;OX7XXXPyHrXXXV;;HXXXXXXJ: 6X.... ",
" ....oG 22 22;  222 2 &XXXXXXXX5i  2 2;mXXXXXXXX7X%: M*XXXr;;4XXXXXXj: G,XXXL: M7XXXXXXXXXD;;4X*Xgd M7XXXXXXXXXX*X#: loUUoUfg;;6X.... ",
" ....5322222:0k 222 ;mXXXXXXXXXr:22222;6XXXXXXXXXX%: M*X7Xr;;4XXXXXXu; k,X7XJ: 17XXXXXXX7XD:;CXXXb; 6XXXXXXXXXXXXXa;2itt33-tF ;6X.... ",
" ....53 22  V7r:2222;8XXXXXXXXfG 22222 SXXXXXXXXXXj; M*XXXr: NXXXXXXu; G,X7XJ; 17XXXXXXXXXr;;CXXX4 ;=XXXXXXXXXXXXXV:2 :d;;dd;2;6X.... ",
" ....o3 2:KOXXU3 32:NXXXXXXXXXB:222222;6XXXXXXXXXX%: M*X7Xr:;4XXXXXXu; G,XXXJ: 17XXXXXXXXXD;;CX7Xy;;mXXXXXXXXXXX7X#: MIIIIIcS  wX.... ",
" ....*1;;V*XXXX89:d0oXXXXXXXX71 222223;yXXXXXXXXXX%; M*XXXr:;=XXXX7Xu; kPX7XJ: 17XXXXXXXXXD;;NXXXa: >XXXXXXXe55*XXV;;4XXXXXXAd 6X.... ",
" ....XSqzXXXXXXXYA+*XXXXXXXXXZ:3 22222:$XXXXXXXXXXj; M*X7Xa;;mXXXXXXj: M*XXXJ: 17XXXXXXXXXD:;CX7XT; 3e7XXXX*1;3oXXV;;=7X7X*X$;;wX.... ",
" ....XzoX7XXXXXXXXXXXXXXXXXX7>;222222 ;zXXXXXXXXXX%: M*XXX$; 1XXXX7X#; >XXXXJ: M*XXXXXXXXXr:;4XXXei2:gXXX*X5  17XXV:;HXXXXXX$;;6X.... ",
" ....XXXXXXXXXXXXXXXXXXXXXXXL:2222222 M,XXXXXXXX7XZ; M*XXXO;2;$XXXX5ti;bX7XXJ; 1XXXXXXXX7XD; NXXXXy;ii8XXXXy;;yX7XV;;=XXXXXX$d 6X.... ",
" ....XXXXXXXXXXXXXXXXXXXXXXe3 2222222:aXXXXXXXXXXXZ; 1*XXXXS;2 4ATV9 2;&XX7XJ;2Fybybyy4sXXD;;CXXXXet 2icT+l;3:OX*XV;;HXXXX7XB; 6X.... ",
" ....XXXXXXXXXXXXXXXXXXXXX7S;i  2222 i5XXXXXXXXX7X%: 17XXXX5qd ;;;;  dLXXXXXJ:2 :::;:;pZXXr:;4XXXXXO9; ;;:  dDXXXXV:;HXXXXXX$:;6X.... ",
" ....XXX,XXXXXXXXXXXXXXXXXI;22 222 3:rXXXXXXXXXXXX$: >XXXXXXoI3;::; 0RXXXXXXL:32323333;uXXr; yXXXXXX5y3;;;;9g7XXXXV: =XXXXXXB;;6X.... ",
" ....XXX5eX7XXXXXXXXXX7XXE:222222   MfXXXXXXXXX&8Jt2;4X7XXXXXXo8<Aj&XXXXXXXXfeeeeeYeeee*XXfeeoXXXXXXXXYRAARoXXXXXXfeeoXXXXXX,eeoX.... ",
" ....XXXX+8XXXXXX7XX7XXem:2 22 2 22;OXXXXXXXXXXSd;  d8XXXXXXXXXXXXXXXXXXXXXXXXXXXXXXXXXXXXXXXXXXXXXXXXXXXXXXXXXXXXXXXXXXXXXXXXXXX.... ",
" ....XXXXXEyeXXXXXXXXo$t;3 22222 2:TXXXXXXXXXXX0p;;t+XXXXXXXXXXXXXXXXXXXXXXXXXXXXXXXXXXXXXXXXXXXXXXXXXX7XXXXXXXXXXXXXXXXXXXXXXXXX.... ",
" ....XXXXXXCd6#<uRuJCt: 2 222223 ;ZXXXXXXXXXXXXTgJRfXXXXXXXXXXXXXXXXXXXXXXXXXXXXXXXXXXXXXXXXXXXXXXXXXXXXXXXXXXXXXXXXXXXXXXXXXXXXX.... ",
" ....XXXXXXXB:p;;:::; 322222222:MOXXXXXXXXXXXXXXXXXXXXXXXXXXXXXXXXXXXXXXXXXXXXXXXXXXXXXXXXXXXXXXXXXXXXXXXXXXXXXXXXXXXXXXXXXXXXXXX.... ",
" ....XXXXXXXX&H;;23F33 2 322 d rfXXXXXXXXXXXXXX777XXXXXXX7XXXXXXXXXX7XXXXXXXXXXXX7XXXXXXXXXXXXXXXXXXXX7XXXXXXXX7XX7XXXXXXXX7XXXXX.... ",
" ....XXXXXXXXXX843::;    ;:;krnXXXXXXXXXXXXXXXXXXXXXXXXXXXXXXXXXXXXXXXXXXXXXXXXXXXXXXXXXXXXXXXXXXXXXXXXXXXXXXXXXXXXXXXXXXXXX7XXXX.... ",
" ....XXXXXXXXXXXXYTD6KM1>=#RfXXXXXXXXXXXXXXXXXXWQQPXQ!PX~Q^7XP!WXX~!WX~~XP~7/X7~7WX7/XX^!PX7((X~QQ^7W(Q7/7X/P^QQ~~(^7P/X7/XWPX7WX.... ",
" ....XXXXXXXXXXXXXXXXX**XXXXXXXXXXXXXXXXXXXXXXX)(^7!_Q)7!_(`7)^`W~'Q`WQ(XQ!/_XW_X]WX`X!_Q'7[(!!PQ!{P'QWX{[X_WW{[~_!!!~`X~`X}(X^]P.... ",
" ....XXXXXXXXXXXXXXXXXXXXXXXXXXXXXXXXXXXXXXXXXX`/PP)XX_W(^X'P)(P7!(XPPQ_/!(/_X/_7``P_P)XXPX[_PP7X_/7`~PX_'P[/X[~X_~~`~_X~`X)_X[)P.... ",
" ....XXXXXXXXXXXXXXXXXXXXXXXXXXXXXXXXXXXXXXXXXX)_!/`X7(Q('|WX7_'~[WXXXQ'()(/[7/[P[^!!~`X^`~X!{^XQ_77'[!X[W[!/X`WX_'|~~_X~_7_!W!_~.... ",
" ....XXXXXXXXXXXXXXXXXXXXXXXXXXXXXXXXXXXXXXXXXX`XXX)~X)/!W!(7!X(!^_X^QQ(XQ!/`XW_7`X`'7'/X_W(X~'P)77P_XXX`X!|~X`/X`~_W~)X~`7`W'^_~.... ",
" ....XXXXXXXXXXXXXXXXXXXXXXXXXXXXXXXXXXXXXXXXXX_PXX^`_!X(^X`P[``/7__)~^(X^(X__`W7[7W'XW)[`P(``W^'[!P)_[P!P7{~X[/X[~~`X[_`^X[P'P!~.... ",
" ....XXXXXXXXXXXXXXXXXXXXXXXXXXXXXXXXXXXXXXXXXXXXXXXP~XXX7XXXX/PXXX/7XXXXX7XX/PX7XXXXXX7/XXX~~X7P~PXP~P7XXXX7XXXX7XX7XX/PXX7XXXXX.... ",
" .................................................................................................................................... ",
" .................................................................................................................................... ",
" .................................................................................................................................... ",
" .................................................................................................................................... ",
"                                                                                                                                      "};
